<svg width="32.000000" height="32.000000" viewBox="0 0 32 32" fill="none" xmlns="http://www.w3.org/2000/svg" xmlns:xlink="http://www.w3.org/1999/xlink">
	<desc>
			Created with Pixso.
	</desc>
	<defs/>
	<circle id="Ellipse 1" cx="16.000000" cy="16.000000" r="16.000000" fill="#EAEAEA" fill-opacity="1.000000"/>
	<path id="Vector" d="M27.0002 21.8293C27.0002 25.2373 24.2373 28 20.8293 28C17.4214 28 14.6587 25.2373 14.6587 21.8293C14.6587 18.4213 17.4214 15.6586 20.8293 15.6586C24.2373 15.6586 27.0002 18.4213 27.0002 21.8293Z" fill="#97CF26" fill-opacity="1.000000" fill-rule="evenodd"/>
	<path id="Vector" d="M11.8538 21.8293C11.8538 23.3784 10.5979 24.6342 9.04883 24.6342C7.49976 24.6342 6.2439 23.3784 6.2439 21.8293C6.2439 20.2802 7.49976 19.0244 9.04883 19.0244C10.5979 19.0244 11.8538 20.2802 11.8538 21.8293Z" fill="#A169F7" fill-opacity="1.000000" fill-rule="evenodd"/>
	<path id="Vector" d="M24.7561 10.0488C24.7561 12.2175 22.9978 13.9756 20.8291 13.9756C18.6604 13.9756 16.9023 12.2175 16.9023 10.0488C16.9023 7.88 18.6604 6.12195 20.8291 6.12195C22.9978 6.12195 24.7561 7.88 24.7561 10.0488Z" fill="#FF6163" fill-opacity="1.000000" fill-rule="evenodd"/>
	<path id="Vector" d="M14.0977 10.0488C14.0977 12.8372 11.8372 15.0975 9.04883 15.0975C6.2605 15.0975 4 12.8372 4 10.0488C4 7.26038 6.2605 5 9.04883 5C11.8372 5 14.0977 7.26038 14.0977 10.0488Z" fill="#00AAFF" fill-opacity="1.000000" fill-rule="evenodd"/>
</svg>
