<svg width="32.000000" height="32.000000" viewBox="0 0 32 32" fill="none" xmlns="http://www.w3.org/2000/svg" xmlns:xlink="http://www.w3.org/1999/xlink">
	<desc>
			Created with Pixso.
	</desc>
	<defs/>
	<path id="bg" d="M0 16C0 24.8365 7.16333 32 16 32C24.8367 32 32 24.8365 32 16C32 7.16345 24.8367 0 16 0C7.16333 0 0 7.16345 0 16Z" fill="#0088CC" fill-opacity="1.000000" fill-rule="evenodd"/>
	<path id="telegram" d="M8.09985 15.7083C12.3948 13.837 15.2588 12.6034 16.6919 12.0073C20.7834 10.3055 21.6335 10.01 22.1877 10.0001C22.3096 9.99805 22.582 10.0282 22.7585 10.1715C22.9077 10.2925 22.9487 10.4558 22.9683 10.5704C22.9878 10.6852 23.0122 10.9464 22.9929 11.1505C22.7712 13.4801 21.8118 19.1335 21.3237 21.7427C21.1172 22.8468 20.7104 23.2169 20.3169 23.2532C19.4612 23.3319 18.8115 22.6877 17.9829 22.1445C16.6863 21.2946 15.9536 20.7655 14.6951 19.936C13.2405 18.9774 14.1833 18.4506 15.0125 17.5896C15.2292 17.3643 18.999 13.9354 19.072 13.6244C19.0811 13.5856 19.0896 13.4406 19.0034 13.3639C18.9172 13.2874 18.79 13.3136 18.6982 13.3344C18.5684 13.3639 16.4968 14.733 12.4839 17.4419C11.896 17.8457 11.3633 18.0424 10.8862 18.0321C10.3601 18.0208 9.34814 17.7346 8.59595 17.4901C7.67334 17.1902 6.93994 17.0316 7.00391 16.5222C7.03711 16.257 7.40259 15.9856 8.09985 15.7083Z" fill="#FFFFFF" fill-opacity="1.000000" fill-rule="nonzero"/>
</svg>
