<svg width="32.000000" height="32.000000" viewBox="0 0 32 32" fill="none" xmlns="http://www.w3.org/2000/svg" xmlns:xlink="http://www.w3.org/1999/xlink">
	<desc>
			Created with Pixso.
	</desc>
	<defs/>
	<path id="bg" d="M0 16C0 24.8365 7.16333 32 16 32C24.8367 32 32 24.8365 32 16C32 7.16345 24.8367 0 16 0C7.16333 0 0 7.16345 0 16Z" fill="#25D366" fill-opacity="1.000000" fill-rule="evenodd"/>
	<path id="whatsapp" d="M21.6001 10.3C20.1001 8.80005 18.1001 8 16 8C11.6001 8 8 11.6 8 16C8 17.4 8.3999 18.8 9.1001 20L8 24L12.2 22.9C13.3999 23.5 14.7 23.9 16 23.9C20.3999 23.9 24 20.3 24 15.9C24 13.8 23.1001 11.8 21.6001 10.3ZM16 22.6C14.8 22.6 13.6001 22.3 12.6001 21.7L12.3999 21.6L9.8999 22.3L10.6001 19.9L10.3999 19.6C9.69995 18.5 9.3999 17.3 9.3999 16.1C9.3999 12.5 12.3999 9.5 16 9.5C17.8 9.5 19.3999 10.2 20.7 11.4C22 12.7 22.6001 14.3 22.6001 16.1C22.6001 19.6 19.7 22.6 16 22.6ZM19.6001 17.6C19.3999 17.5 18.3999 17 18.2 17C18 16.9 17.8999 16.9 17.8 17.1C17.7 17.3 17.3 17.7 17.2 17.9C17.1001 18 17 18 16.8 18C16.6001 17.9 16 17.7 15.2 17C14.6001 16.5 14.2 15.8 14.1001 15.6C14 15.4 14.1001 15.3 14.2 15.2C14.3 15.1 14.3999 15 14.5 14.9C14.6001 14.8 14.6001 14.7 14.7 14.6C14.8 14.5 14.7 14.4 14.7 14.3C14.7 14.2 14.3 13.2 14.1001 12.8C14 12.5 13.8 12.5 13.7 12.5C13.6001 12.5 13.5 12.5 13.3 12.5C13.2 12.5 13 12.5 12.8 12.7C12.6001 12.9 12.1001 13.4 12.1001 14.4C12.1001 15.4 12.8 16.3 12.8999 16.5C13 16.6 14.3 18.7 16.3 19.5C18 20.2 18.3 20 18.7 20C19.1001 20 19.8999 19.5 20 19.1C20.2 18.6 20.2 18.2 20.1001 18.2C20 17.7 19.8 17.7 19.6001 17.6Z" fill="#FFFFFF" fill-opacity="1.000000" fill-rule="evenodd"/>
</svg>
